<svg width="33" height="16" viewBox="0 0 33 16" fill="none" xmlns="http://www.w3.org/2000/svg">
<path d="M6.448 2.416H13.136L13.856 1.52C13.856 1.52 13.8987 1.55733 13.984 1.632C14.08 1.696 14.192 1.78667 14.32 1.904C14.4587 2.01067 14.6027 2.13333 14.752 2.272C14.912 2.4 15.0507 2.52267 15.168 2.64C15.136 2.8 14.9973 2.88 14.752 2.88H6.576L6.448 2.416ZM7.088 4.656H12.56L13.264 3.76C13.264 3.76 13.3387 3.81867 13.488 3.936C13.6373 4.05333 13.8133 4.19733 14.016 4.368C14.2187 4.53867 14.4053 4.704 14.576 4.864C14.5333 5.03467 14.3947 5.12 14.16 5.12H7.216L7.088 4.656ZM1.312 1.648H4.08L4.752 0.783999C4.752 0.783999 4.82133 0.842666 4.96 0.959999C5.09867 1.07733 5.264 1.216 5.456 1.376C5.65867 1.536 5.83467 1.69067 5.984 1.84C5.952 2.01067 5.81333 2.096 5.568 2.096H1.44L1.312 1.648ZM1.312 5.68H4.16L4.8 4.88C4.8 4.88 4.864 4.93867 4.992 5.056C5.12 5.16267 5.27467 5.296 5.456 5.456C5.63733 5.60533 5.79733 5.75467 5.936 5.904C5.904 6.064 5.77067 6.144 5.536 6.144H1.44L1.312 5.68ZM1.312 7.728H4.16L4.8 6.944C4.8 6.944 4.864 6.99733 4.992 7.104C5.12 7.21067 5.27467 7.33867 5.456 7.488C5.63733 7.63733 5.79733 7.78667 5.936 7.936C5.904 8.10667 5.77067 8.192 5.536 8.192H1.44L1.312 7.728ZM0.656 3.648H4.72L5.408 2.768C5.408 2.768 5.47733 2.82667 5.616 2.944C5.75467 3.06133 5.92 3.20533 6.112 3.376C6.31467 3.54667 6.496 3.712 6.656 3.872C6.61333 4.032 6.47467 4.112 6.24 4.112H0.784L0.656 3.648ZM1.376 9.744V9.248L2.416 9.744H5.104V10.208H2.352V14.848C2.352 14.88 2.30933 14.9227 2.224 14.976C2.13867 15.0293 2.032 15.0773 1.904 15.12C1.78667 15.1627 1.65867 15.184 1.52 15.184H1.376V9.744ZM4.592 9.744H4.448L4.976 9.168L6.176 10.08C6.13333 10.1333 6.05867 10.1867 5.952 10.24C5.84533 10.2933 5.71733 10.3307 5.568 10.352V14.4C5.568 14.432 5.52 14.4747 5.424 14.528C5.328 14.5813 5.216 14.6293 5.088 14.672C4.97067 14.7253 4.85867 14.752 4.752 14.752H4.592V9.744ZM1.856 13.504H5.12V13.968H1.856V13.504ZM7.408 6.656H14.304V7.104H7.408V6.656ZM7.248 6.08L7.536 6.096C7.664 6.69333 7.68 7.21067 7.584 7.648C7.49867 8.08533 7.36 8.41067 7.168 8.624C7.08267 8.70933 6.976 8.77867 6.848 8.832C6.72 8.87467 6.592 8.88533 6.464 8.864C6.336 8.832 6.24 8.76267 6.176 8.656C6.09067 8.51733 6.08 8.37333 6.144 8.224C6.208 8.064 6.30933 7.92533 6.448 7.808C6.576 7.70133 6.69867 7.55733 6.816 7.376C6.944 7.184 7.04533 6.976 7.12 6.752C7.20533 6.51733 7.248 6.29333 7.248 6.08ZM13.888 6.656H13.712L14.368 5.968L15.6 7.12C15.5467 7.19467 15.472 7.24267 15.376 7.264C15.28 7.27467 15.152 7.28533 14.992 7.296C14.8 7.53067 14.5547 7.792 14.256 8.08C13.9573 8.35733 13.6693 8.592 13.392 8.784L13.184 8.656C13.2693 8.464 13.3547 8.25067 13.44 8.016C13.536 7.77067 13.6267 7.52533 13.712 7.28C13.7973 7.03467 13.856 6.82667 13.888 6.656ZM11.248 8.192L12.736 8.368C12.7147 8.58133 12.56 8.71467 12.272 8.768V13.712C12.272 13.808 12.2933 13.8773 12.336 13.92C12.3787 13.952 12.4853 13.968 12.656 13.968H13.44C13.6213 13.968 13.7813 13.968 13.92 13.968C14.0587 13.968 14.1547 13.9627 14.208 13.952C14.3147 13.952 14.3893 13.8933 14.432 13.776C14.4747 13.6907 14.5173 13.536 14.56 13.312C14.6027 13.0773 14.6507 12.8107 14.704 12.512C14.768 12.2133 14.8213 11.92 14.864 11.632H15.088L15.136 13.84C15.2853 13.904 15.3813 13.968 15.424 14.032C15.4667 14.096 15.488 14.176 15.488 14.272C15.488 14.4213 15.4293 14.5387 15.312 14.624C15.2053 14.72 15.0027 14.7893 14.704 14.832C14.4053 14.8853 13.9733 14.912 13.408 14.912H12.4C12.08 14.912 11.8347 14.8747 11.664 14.8C11.504 14.736 11.392 14.6347 11.328 14.496C11.2747 14.3573 11.248 14.1707 11.248 13.936V8.192ZM8.576 8.192L10.304 8.448C10.24 8.704 10.048 8.848 9.728 8.88C9.70667 9.50933 9.63733 10.1333 9.52 10.752C9.40267 11.36 9.2 11.9467 8.912 12.512C8.624 13.0667 8.21867 13.5787 7.696 14.048C7.17333 14.5173 6.496 14.9227 5.664 15.264L5.536 15.04C6.21867 14.656 6.768 14.2133 7.184 13.712C7.61067 13.2 7.93067 12.6453 8.144 12.048C8.35733 11.4507 8.49067 10.832 8.544 10.192C8.59733 9.54133 8.608 8.87467 8.576 8.192ZM9.984 0.575999L11.616 0.735999C11.6053 0.842666 11.552 0.938666 11.456 1.024C11.3707 1.09867 11.232 1.152 11.04 1.184V4.912H9.984V0.575999ZM22.928 1.6H26.288V2.064H23.072L22.928 1.6ZM22.848 8.576H26.112V9.04H22.992L22.848 8.576ZM27.024 8.576H30.944V9.04H27.168L27.024 8.576ZM27.408 1.6H30.768V2.064H27.552L27.408 1.6ZM30.288 1.6H30.128L30.768 0.976L31.904 1.952C31.808 2.06933 31.6053 2.13867 31.296 2.16C31.0827 2.98133 30.7787 3.74933 30.384 4.464C30 5.17867 29.4773 5.81867 28.816 6.384C28.1653 6.93867 27.3387 7.40267 26.336 7.776L26.208 7.52C27.0613 7.09333 27.76 6.58133 28.304 5.984C28.8587 5.38667 29.2907 4.72 29.6 3.984C29.92 3.23733 30.1493 2.44267 30.288 1.6ZM25.808 1.6H25.68L26.288 0.976L27.392 1.952C27.3067 2.06933 27.1093 2.13333 26.8 2.144C26.6293 2.88 26.384 3.59467 26.064 4.288C25.744 4.97067 25.3227 5.60533 24.8 6.192C24.288 6.768 23.632 7.26933 22.832 7.696L22.688 7.472C23.3387 6.992 23.872 6.44267 24.288 5.824C24.7147 5.20533 25.0507 4.53867 25.296 3.824C25.5413 3.09867 25.712 2.35733 25.808 1.6ZM23.36 3.584C24.0533 3.69067 24.6347 3.84 25.104 4.032C25.584 4.224 25.9627 4.432 26.24 4.656C26.528 4.88 26.7307 5.09867 26.848 5.312C26.9653 5.52533 27.0133 5.71733 26.992 5.888C26.9707 6.048 26.896 6.16 26.768 6.224C26.6507 6.27733 26.496 6.26667 26.304 6.192C26.1333 5.89333 25.872 5.58933 25.52 5.28C25.1787 4.97067 24.8053 4.68267 24.4 4.416C23.9947 4.13867 23.6 3.92533 23.216 3.776L23.36 3.584ZM25.632 8.576H25.488L26.096 7.968L27.2 8.944C27.1467 9.008 27.0773 9.056 26.992 9.088C26.9067 9.10933 26.7787 9.13067 26.608 9.152C26.4267 9.96267 26.1707 10.752 25.84 11.52C25.52 12.2773 25.0773 12.9813 24.512 13.632C23.9467 14.272 23.2213 14.8267 22.336 15.296L22.176 15.056C22.912 14.544 23.5147 13.9467 23.984 13.264C24.4533 12.5707 24.816 11.8293 25.072 11.04C25.3387 10.24 25.5253 9.41867 25.632 8.576ZM30.384 8.576H30.224L30.864 7.952L31.984 8.944C31.8987 9.072 31.696 9.14133 31.376 9.152C31.1733 10.0693 30.8693 10.9173 30.464 11.696C30.0587 12.464 29.4987 13.1467 28.784 13.744C28.08 14.3307 27.1573 14.816 26.016 15.2L25.904 14.944C26.8853 14.5067 27.6747 13.9733 28.272 13.344C28.88 12.7147 29.3493 12 29.68 11.2C30.0107 10.4 30.2453 9.52533 30.384 8.576ZM23.2 10.352C23.968 10.5653 24.6027 10.8053 25.104 11.072C25.6053 11.3387 26 11.616 26.288 11.904C26.5867 12.1813 26.7893 12.448 26.896 12.704C27.0027 12.9493 27.04 13.1627 27.008 13.344C26.9867 13.5147 26.9067 13.6267 26.768 13.68C26.64 13.7333 26.4747 13.712 26.272 13.616C26.112 13.2533 25.8507 12.88 25.488 12.496C25.136 12.1013 24.736 11.7333 24.288 11.392C23.8507 11.0507 23.4347 10.7627 23.04 10.528L23.2 10.352ZM27.648 3.616C28.48 3.82933 29.168 4.07467 29.712 4.352C30.2667 4.62933 30.704 4.91733 31.024 5.216C31.3547 5.504 31.584 5.78133 31.712 6.048C31.8507 6.31467 31.904 6.544 31.872 6.736C31.8507 6.91733 31.7707 7.04533 31.632 7.12C31.4933 7.19467 31.3173 7.17867 31.104 7.072C30.9333 6.67733 30.6453 6.27733 30.24 5.872C29.8347 5.456 29.3867 5.06667 28.896 4.704C28.4053 4.33067 27.9413 4.02667 27.504 3.792L27.648 3.616ZM27.904 8.576C28.0853 9.51467 28.3733 10.3573 28.768 11.104C29.1627 11.84 29.6533 12.48 30.24 13.024C30.8373 13.568 31.52 14.0107 32.288 14.352L32.256 14.512C31.8507 14.5547 31.5627 14.8107 31.392 15.28C30.6667 14.8427 30.0533 14.3093 29.552 13.68C29.0507 13.0507 28.64 12.3253 28.32 11.504C28.0107 10.6827 27.776 9.744 27.616 8.688L27.904 8.576ZM19.712 7.808L20.704 7.744V14.928C20.704 14.9707 20.624 15.0347 20.464 15.12C20.3147 15.216 20.112 15.264 19.856 15.264H19.712V7.808ZM19.68 0.608L21.248 1.184C21.216 1.26933 21.1467 1.344 21.04 1.408C20.944 1.46133 20.8213 1.48267 20.672 1.472C20.3627 1.93067 20.032 2.4 19.68 2.88C19.3387 3.34933 19.0027 3.75467 18.672 4.096L18.432 3.968C18.624 3.54133 18.832 3.024 19.056 2.416C19.28 1.79733 19.488 1.19467 19.68 0.608ZM21.424 2.368L22.928 2.976C22.8853 3.06133 22.8107 3.13067 22.704 3.184C22.608 3.23733 22.4747 3.25333 22.304 3.232C22.048 3.68 21.7333 4.18133 21.36 4.736C20.9867 5.28 20.592 5.83467 20.176 6.4C19.7707 6.96533 19.3707 7.48267 18.976 7.952H18.592C18.912 7.42933 19.2427 6.84267 19.584 6.192C19.9253 5.53067 20.256 4.864 20.576 4.192C20.9067 3.52 21.1893 2.912 21.424 2.368ZM17.456 7.6C17.7547 7.6 18.1547 7.59467 18.656 7.584C19.1573 7.56267 19.7227 7.536 20.352 7.504C20.9813 7.46133 21.6267 7.424 22.288 7.392V7.664C21.84 7.77067 21.2853 7.89333 20.624 8.032C19.9733 8.17067 19.2053 8.32 18.32 8.48C18.2773 8.58667 18.2187 8.66667 18.144 8.72C18.08 8.76267 18.0107 8.79467 17.936 8.816L17.456 7.6ZM17.552 3.184C18.0427 3.32267 18.4267 3.48267 18.704 3.664C18.992 3.84533 19.2 4.03733 19.328 4.24C19.4667 4.432 19.5413 4.61867 19.552 4.8C19.5733 4.97067 19.5413 5.11467 19.456 5.232C19.3813 5.33867 19.2747 5.40267 19.136 5.424C19.008 5.44533 18.864 5.40267 18.704 5.296C18.64 4.95467 18.4747 4.60267 18.208 4.24C17.9413 3.86667 17.6693 3.55733 17.392 3.312L17.552 3.184ZM21.184 5.952C21.6213 6.24 21.9627 6.53333 22.208 6.832C22.4533 7.12 22.6187 7.39733 22.704 7.664C22.8 7.93067 22.8373 8.16533 22.816 8.368C22.8053 8.57067 22.752 8.73067 22.656 8.848C22.56 8.96533 22.4373 9.02933 22.288 9.04C22.1493 9.04 22.0053 8.97067 21.856 8.832C21.856 8.52267 21.808 8.20267 21.712 7.872C21.6267 7.54133 21.5147 7.216 21.376 6.896C21.248 6.56533 21.1147 6.27733 20.976 6.032L21.184 5.952ZM21.456 9.696C21.9253 10.0693 22.272 10.4373 22.496 10.8C22.72 11.152 22.848 11.4773 22.88 11.776C22.912 12.064 22.88 12.304 22.784 12.496C22.688 12.688 22.56 12.8 22.4 12.832C22.24 12.8533 22.0693 12.7787 21.888 12.608C21.8987 12.2987 21.872 11.9733 21.808 11.632C21.744 11.2907 21.6587 10.96 21.552 10.64C21.456 10.3093 21.344 10.016 21.216 9.76L21.456 9.696ZM18.24 9.696L19.648 10.048C19.5947 10.2613 19.4133 10.3733 19.104 10.384C18.9333 11.024 18.72 11.6587 18.464 12.288C18.2187 12.9173 17.9307 13.4667 17.6 13.936L17.344 13.792C17.5467 13.248 17.7227 12.6133 17.872 11.888C18.032 11.152 18.1547 10.4213 18.24 9.696Z" fill="black"/>
</svg>
